<?xml version="1.0" encoding="UTF-8"?>
<!DOCTYPE svg PUBLIC "-//W3C//DTD SVG 1.1//EN" "http://www.w3.org/Graphics/SVG/1.1/DTD/svg11.dtd">
<svg xmlns="http://www.w3.org/2000/svg" version="1.1" width="500px" height="500px" style="shape-rendering:geometricPrecision; text-rendering:geometricPrecision; image-rendering:optimizeQuality; fill-rule:evenodd; clip-rule:evenodd" xmlns:xlink="http://www.w3.org/1999/xlink">
<g><path style="opacity:1" fill="#fefefe" d="M -0.5,-0.5 C 166.167,-0.5 332.833,-0.5 499.5,-0.5C 499.5,166.167 499.5,332.833 499.5,499.5C 332.833,499.5 166.167,499.5 -0.5,499.5C -0.5,332.833 -0.5,166.167 -0.5,-0.5 Z"/></g>
<g><path style="opacity:1" fill="#16858a" d="M 243.5,63.5 C 267.777,62.7129 283.943,73.7129 292,96.5C 294.262,105.695 293.595,114.695 290,123.5C 281.05,145.099 270.383,165.766 258,185.5C 252.333,190.833 246.667,190.833 241,185.5C 228.246,165.994 217.579,145.327 209,123.5C 201.129,92.2319 212.629,72.2319 243.5,63.5 Z"/></g>
<g><path style="opacity:1" fill="#fafcfc" d="M 243.5,82.5 C 259.276,80.9661 269.776,87.6328 275,102.5C 276.968,116.733 271.468,126.899 258.5,133C 241.549,136.942 230.049,130.775 224,114.5C 222.09,98.6449 228.59,87.9783 243.5,82.5 Z"/></g>
<g><path style="opacity:1" fill="#18868b" d="M 244.5,94.5 C 258.674,93.1728 264.841,99.5061 263,113.5C 259.167,121.122 253.001,123.955 244.5,122C 235.17,116.718 233.004,109.218 238,99.5C 239.965,97.4497 242.132,95.783 244.5,94.5 Z"/></g>
<g><path style="opacity:1" fill="#19868b" d="M 194.5,144.5 C 200.509,144.334 206.509,144.501 212.5,145C 213.884,148.319 215.55,151.485 217.5,154.5C 212.868,155.328 208.202,155.828 203.5,156C 201.376,157.122 199.543,158.622 198,160.5C 195.794,170.566 193.961,180.732 192.5,191C 192.833,192.167 193.167,193.333 193.5,194.5C 204.144,186.357 214.644,178.024 225,169.5C 227.49,172.465 228.824,175.798 229,179.5C 222.833,184.333 216.667,189.167 210.5,194C 226.433,190.976 238.767,196.143 247.5,209.5C 254.687,201.481 261.687,193.314 268.5,185C 267.643,184.311 266.977,183.478 266.5,182.5C 268.2,179.961 269.7,177.295 271,174.5C 281.019,181.63 292.186,184.63 304.5,183.5C 304.559,175.631 303.392,167.964 301,160.5C 299.457,158.622 297.624,157.122 295.5,156C 290.798,155.828 286.132,155.328 281.5,154.5C 283.42,151.661 285.087,148.661 286.5,145.5C 293.557,144.115 300.557,144.282 307.5,146C 310.384,147.884 312.551,150.384 314,153.5C 318.415,179.819 322.748,206.152 327,232.5C 328.745,239.564 327.245,245.731 322.5,251C 320.913,251.862 319.246,252.529 317.5,253C 271.5,253.667 225.5,253.667 179.5,253C 175.942,251.108 173.442,248.275 172,244.5C 171.536,238.471 171.869,232.471 173,226.5C 177.082,202.175 181.082,177.841 185,153.5C 187.294,149.461 190.461,146.461 194.5,144.5 Z"/></g>
<g><path style="opacity:1" fill="#fcfdfd" d="M 309.5,210.5 C 309.5,211.5 309.5,212.5 309.5,213.5C 292.167,213.5 274.833,213.5 257.5,213.5C 264.506,205.494 271.506,197.494 278.5,189.5C 287.806,193.134 297.473,194.467 307.5,193.5C 308.085,199.178 308.751,204.845 309.5,210.5 Z"/></g>
<g><path style="opacity:1" fill="#fdfefe" d="M 190.5,204.5 C 203.907,204.056 217.24,204.556 230.5,206C 232.609,207.141 234.442,208.641 236,210.5C 242.774,221.605 249.941,232.438 257.5,243C 235.411,243.978 213.411,243.644 191.5,242C 187.681,239.36 186.015,235.693 186.5,231C 187.14,222.042 188.473,213.208 190.5,204.5 Z"/></g>
<g><path style="opacity:1" fill="#85c0c3" d="M 309.5,210.5 C 310.434,211.568 310.768,212.901 310.5,214.5C 292.659,214.83 274.992,214.497 257.5,213.5C 274.833,213.5 292.167,213.5 309.5,213.5C 309.5,212.5 309.5,211.5 309.5,210.5 Z"/></g>
<g><path style="opacity:1" fill="#86c0c3" d="M 311.5,224.5 C 293.326,224.17 275.326,224.503 257.5,225.5C 256.957,225.44 256.624,225.107 256.5,224.5C 274.996,223.173 293.329,223.173 311.5,224.5 Z"/></g>
<g><path style="opacity:1" fill="#fdfefe" d="M 311.5,224.5 C 312.645,228.311 312.812,232.311 312,236.5C 310.612,239.945 308.112,242.111 304.5,243C 292.486,243.833 280.486,243.666 268.5,242.5C 265.072,236.635 261.405,230.968 257.5,225.5C 275.326,224.503 293.326,224.17 311.5,224.5 Z"/></g>
<g><path style="opacity:1" fill="#090909" d="M 214.5,364.5 C 214.783,365.289 215.283,365.956 216,366.5C 216.825,355.659 216.659,344.992 215.5,334.5C 215.631,333.761 215.464,333.094 215,332.5C 212.689,331.603 210.856,330.27 209.5,328.5C 216.255,327.877 222.588,328.544 228.5,330.5C 225.675,330.081 223.509,331.081 222,333.5C 221.5,349.163 221.333,364.83 221.5,380.5C 218.223,380.784 215.057,380.451 212,379.5C 202.333,365.833 192.667,352.167 183,338.5C 182.333,350.167 182.333,361.833 183,373.5C 184.287,376.145 186.453,377.145 189.5,376.5C 189.5,377.5 189.5,378.5 189.5,379.5C 174.5,379.5 159.5,379.5 144.5,379.5C 144.5,378.5 144.5,377.5 144.5,376.5C 146.467,376.739 148.301,376.406 150,375.5C 150.401,371.684 149.734,368.017 148,364.5C 141.333,363.167 134.667,363.167 128,364.5C 125.928,367.932 125.262,371.598 126,375.5C 127.699,376.406 129.533,376.739 131.5,376.5C 131.5,377.5 131.5,378.5 131.5,379.5C 121.161,379.666 110.828,379.5 100.5,379C 94.3021,371.309 87.9687,363.809 81.5,356.5C 80.791,355.596 79.791,355.263 78.5,355.5C 78.1786,361.026 78.5119,366.36 79.5,371.5C 79.2965,373.39 79.9632,374.89 81.5,376C 83.8098,376.497 86.1432,376.663 88.5,376.5C 88.5,377.5 88.5,378.5 88.5,379.5C 79.8333,379.5 71.1667,379.5 62.5,379.5C 62.5,378.5 62.5,377.5 62.5,376.5C 65.0444,376.896 67.2111,376.229 69,374.5C 69.6667,360.833 69.6667,347.167 69,333.5C 67.5804,331.578 65.7471,330.245 63.5,329.5C 74.1511,328.334 84.8177,328.168 95.5,329C 107.666,333.979 109.666,341.646 101.5,352C 98.9454,353.444 96.2787,354.611 93.5,355.5C 98.9802,362.148 104.647,368.648 110.5,375C 114.058,377.154 117.225,376.654 120,373.5C 125.78,358.156 131.947,342.989 138.5,328C 140.441,327.257 142.274,327.424 144,328.5C 149.333,341.833 154.667,355.167 160,368.5C 163.772,377.055 169.439,378.721 177,373.5C 177.667,360.5 177.667,347.5 177,334.5C 175.533,332.007 173.367,330.34 170.5,329.5C 176.807,328.336 183.141,328.169 189.5,329C 197.966,340.775 206.299,352.608 214.5,364.5 Z"/></g>
<g><path style="opacity:1" fill="#8e8e8e" d="M 209.5,328.5 C 215.979,327.509 222.646,327.176 229.5,327.5C 229.737,328.791 229.404,329.791 228.5,330.5C 222.588,328.544 216.255,327.877 209.5,328.5 Z"/></g>
<g><path style="opacity:1" fill="#0d0d0d" d="M 245.5,327.5 C 252.055,326.634 258.055,327.967 263.5,331.5C 264.167,330.5 264.833,329.5 265.5,328.5C 266.658,333.099 267.325,337.766 267.5,342.5C 266.5,342.5 265.5,342.5 264.5,342.5C 261.459,332.979 255.126,329.813 245.5,333C 241.607,336.746 241.607,340.412 245.5,344C 253.442,347.084 260.942,350.917 268,355.5C 273.261,363.668 272.094,370.834 264.5,377C 255.272,382.091 246.439,381.591 238,375.5C 237.417,377.002 236.584,378.335 235.5,379.5C 234.167,373.833 234.167,368.167 235.5,362.5C 238.458,371.983 244.791,376.483 254.5,376C 262.97,373.623 264.636,368.957 259.5,362C 252.307,359.154 245.474,355.654 239,351.5C 232.663,341.116 234.83,333.116 245.5,327.5 Z"/></g>
<g><path style="opacity:1" fill="#0a0a0a" d="M 346.5,327.5 C 358.546,326.125 368.713,329.792 377,338.5C 386.245,357.102 381.411,370.602 362.5,379C 345.037,383.019 332.871,376.853 326,360.5C 323.686,343.791 330.52,332.791 346.5,327.5 Z"/></g>
<g><path style="opacity:1" fill="#909090" d="M 414.5,328.5 C 405.808,328.169 397.141,328.502 388.5,329.5C 389.602,330.176 390.602,330.842 391.5,331.5C 390.167,331.5 388.833,331.5 387.5,331.5C 387.5,330.167 387.5,328.833 387.5,327.5C 396.682,327.173 405.682,327.507 414.5,328.5 Z"/></g>
<g><path style="opacity:1" fill="#080808" d="M 6.5,328.5 C 24.1667,328.5 41.8333,328.5 59.5,328.5C 59.5,333.167 59.5,337.833 59.5,342.5C 58.5,342.5 57.5,342.5 56.5,342.5C 56.3553,334.69 52.3553,331.024 44.5,331.5C 42.2412,331.532 40.0745,331.866 38,332.5C 37.3333,346.167 37.3333,359.833 38,373.5C 40.1962,376.125 43.0295,377.125 46.5,376.5C 46.5,377.5 46.5,378.5 46.5,379.5C 37.1667,379.5 27.8333,379.5 18.5,379.5C 18.5,378.5 18.5,377.5 18.5,376.5C 22.3547,377.155 25.1881,375.821 27,372.5C 27.6667,359.167 27.6667,345.833 27,332.5C 16.4731,328.382 9.97307,331.716 7.5,342.5C 6.50671,337.88 6.17338,333.214 6.5,328.5 Z"/></g>
<g><path style="opacity:1" fill="#080808" d="M 277.5,328.5 C 288.172,328.333 298.839,328.5 309.5,329C 318.905,331.753 322.405,337.919 320,347.5C 317.774,351.868 314.274,354.702 309.5,356C 304.233,357.191 298.899,357.691 293.5,357.5C 293.09,363.621 293.59,369.621 295,375.5C 297.719,376.444 300.552,376.777 303.5,376.5C 303.5,377.5 303.5,378.5 303.5,379.5C 294.5,379.5 285.5,379.5 276.5,379.5C 276.5,378.5 276.5,377.5 276.5,376.5C 279.044,376.896 281.211,376.229 283,374.5C 283.667,360.5 283.667,346.5 283,332.5C 280.689,331.603 278.856,330.27 277.5,328.5 Z"/></g>
<g><path style="opacity:1" fill="#070707" d="M 414.5,328.5 C 429.828,329.603 434.328,336.936 428,350.5C 425.1,352.636 421.934,354.303 418.5,355.5C 423.98,362.148 429.647,368.648 435.5,375C 437.345,376.128 439.345,376.628 441.5,376.5C 441.5,377.5 441.5,378.5 441.5,379.5C 436.156,379.666 430.823,379.499 425.5,379C 419.31,370.983 412.644,363.483 405.5,356.5C 405.44,355.957 405.107,355.624 404.5,355.5C 403.185,360.986 403.185,366.32 404.5,371.5C 404.297,373.39 404.963,374.89 406.5,376C 408.81,376.497 411.143,376.663 413.5,376.5C 413.5,377.5 413.5,378.5 413.5,379.5C 404.833,379.5 396.167,379.5 387.5,379.5C 387.5,378.5 387.5,377.5 387.5,376.5C 390.547,377.145 392.713,376.145 394,373.5C 394.667,360.167 394.667,346.833 394,333.5C 393.292,332.619 392.458,331.953 391.5,331.5C 390.602,330.842 389.602,330.176 388.5,329.5C 397.141,328.502 405.808,328.169 414.5,328.5 Z"/></g>
<g><path style="opacity:1" fill="#0c0c0c" d="M 439.5,328.5 C 457.167,328.5 474.833,328.5 492.5,328.5C 492.827,333.214 492.493,337.88 491.5,342.5C 488.772,332.129 482.105,328.462 471.5,331.5C 471.333,345.504 471.5,359.504 472,373.5C 474.153,376.124 476.987,377.124 480.5,376.5C 480.5,377.5 480.5,378.5 480.5,379.5C 471.167,379.5 461.833,379.5 452.5,379.5C 452.5,378.5 452.5,377.5 452.5,376.5C 456.355,377.155 459.188,375.821 461,372.5C 461.667,359.167 461.667,345.833 461,332.5C 456.587,331.368 452.087,331.201 447.5,332C 443.367,334.306 441.7,337.806 442.5,342.5C 441.5,342.5 440.5,342.5 439.5,342.5C 439.5,337.833 439.5,333.167 439.5,328.5 Z"/></g>
<g><path style="opacity:1" fill="#fafafa" d="M 79.5,331.5 C 93.4629,330.274 98.1296,336.108 93.5,349C 89.1156,351.208 84.449,352.041 79.5,351.5C 79.5,344.833 79.5,338.167 79.5,331.5 Z"/></g>
<g><path style="opacity:1" fill="#f5f5f5" d="M 293.5,331.5 C 307.388,329.547 312.555,335.213 309,348.5C 304.693,352.658 299.526,354.324 293.5,353.5C 293.5,346.167 293.5,338.833 293.5,331.5 Z"/></g>
<g><path style="opacity:1" fill="#fafafa" d="M 349.5,331.5 C 360.535,330.767 367.368,335.767 370,346.5C 371.709,355.824 369.876,364.324 364.5,372C 349.899,379.614 340.732,375.448 337,359.5C 334.483,346.887 338.65,337.553 349.5,331.5 Z"/></g>
<g><path style="opacity:1" fill="#f3f3f3" d="M 404.5,331.5 C 419.182,330.48 423.516,336.48 417.5,349.5C 413.003,351.217 408.337,351.884 403.5,351.5C 403.207,344.745 403.54,338.078 404.5,331.5 Z"/></g>
<g><path style="opacity:1" fill="#bababa" d="M 215.5,334.5 C 216.659,344.992 216.825,355.659 216,366.5C 215.283,365.956 214.783,365.289 214.5,364.5C 215.494,354.681 215.827,344.681 215.5,334.5 Z"/></g>
<g><path style="opacity:1" fill="#f2f2f2" d="M 137.5,339.5 C 141.128,345.704 143.795,352.371 145.5,359.5C 140.456,359.827 135.456,359.494 130.5,358.5C 133.037,352.22 135.37,345.887 137.5,339.5 Z"/></g>
<g><path style="opacity:1" fill="#565656" d="M 81.5,356.5 C 79.5583,361.056 78.8917,366.056 79.5,371.5C 78.5119,366.36 78.1786,361.026 78.5,355.5C 79.791,355.263 80.791,355.596 81.5,356.5 Z"/></g>
<g><path style="opacity:1" fill="#909090" d="M 405.5,356.5 C 404.513,361.305 404.179,366.305 404.5,371.5C 403.185,366.32 403.185,360.986 404.5,355.5C 405.107,355.624 405.44,355.957 405.5,356.5 Z"/></g>
<g><path style="opacity:1" fill="#181818" d="M 207.5,403.5 C 213.645,402.51 219.978,402.177 226.5,402.5C 226.66,404.199 226.494,405.866 226,407.5C 225.5,405.667 224.333,404.5 222.5,404C 219.854,403.503 217.187,403.336 214.5,403.5C 214.5,406.833 214.5,410.167 214.5,413.5C 217.808,414.026 219.974,412.693 221,409.5C 221.667,412.5 221.667,415.5 221,418.5C 219.713,415.855 217.547,414.855 214.5,415.5C 214.335,418.518 214.502,421.518 215,424.5C 219.979,427.667 223.979,426.667 227,421.5C 227.495,423.473 227.662,425.473 227.5,427.5C 220.825,427.666 214.158,427.5 207.5,427C 208.416,426.626 209.25,426.126 210,425.5C 210.667,418.5 210.667,411.5 210,404.5C 209.329,403.748 208.496,403.414 207.5,403.5 Z"/></g>
<g><path style="opacity:1" fill="#111111" d="M 234.5,402.5 C 242.833,402.5 251.167,402.5 259.5,402.5C 259.799,404.604 259.466,406.604 258.5,408.5C 256.739,403.98 253.406,402.313 248.5,403.5C 248.334,410.508 248.5,417.508 249,424.5C 249.903,425.701 251.069,426.535 252.5,427C 248.5,427.667 244.5,427.667 240.5,427C 241.766,426.691 242.933,426.191 244,425.5C 244.5,418.174 244.666,410.841 244.5,403.5C 242.143,403.337 239.81,403.503 237.5,404C 236.107,405.171 235.273,406.671 235,408.5C 234.505,406.527 234.338,404.527 234.5,402.5 Z"/></g>
<g><path style="opacity:1" fill="#111111" d="M 265.5,403.5 C 271.645,402.51 277.978,402.177 284.5,402.5C 284.66,404.199 284.494,405.866 284,407.5C 283.5,405.667 282.333,404.5 280.5,404C 277.854,403.503 275.187,403.336 272.5,403.5C 272.5,406.833 272.5,410.167 272.5,413.5C 275.368,413.915 277.535,412.915 279,410.5C 279.667,413.167 279.667,415.833 279,418.5C 277.713,415.855 275.547,414.855 272.5,415.5C 270.156,423.977 273.156,427.477 281.5,426C 283.019,424.649 284.352,423.149 285.5,421.5C 286.466,423.396 286.799,425.396 286.5,427.5C 279.492,427.666 272.492,427.5 265.5,427C 266.931,426.535 268.097,425.701 269,424.5C 269.667,417.833 269.667,411.167 269,404.5C 267.989,403.663 266.822,403.33 265.5,403.5 Z"/></g>
<g><path style="opacity:1" fill="#121212" d="M 292.5,403.5 C 295.976,402.357 299.642,402.19 303.5,403C 302.572,403.388 301.905,404.055 301.5,405C 304.05,413.391 307.05,413.558 310.5,405.5C 310.182,404.353 309.516,403.519 308.5,403C 311.5,402.333 314.5,402.333 317.5,403C 315.671,403.273 314.171,404.107 313,405.5C 310.787,408.095 308.953,410.928 307.5,414C 310.461,418.959 314.128,423.292 318.5,427C 314.833,427.667 311.167,427.667 307.5,427C 309.283,425.933 309.783,424.433 309,422.5C 307.692,420.359 306.192,418.359 304.5,416.5C 301.902,418.928 299.902,421.761 298.5,425C 298.905,425.945 299.572,426.612 300.5,427C 297.5,427.667 294.5,427.667 291.5,427C 296.274,423.723 300.274,419.556 303.5,414.5C 301.333,411.5 299.167,408.5 297,405.5C 295.67,404.418 294.17,403.751 292.5,403.5 Z"/></g>
<g><path style="opacity:1" fill="#131313" d="M 186.5,402.5 C 190.151,402.746 193.651,402.746 197,402.5C 197.667,404.5 197.667,406.5 197,408.5C 195.517,404.335 192.684,402.835 188.5,404C 185.833,406.333 185.833,408.667 188.5,411C 192.419,412.54 195.919,414.707 199,417.5C 200.292,421.627 199.125,424.794 195.5,427C 191.683,428.023 188.183,427.523 185,425.5C 184.586,425.957 184.086,426.291 183.5,426.5C 182.353,424.235 182.186,421.902 183,419.5C 184.578,424.869 188.078,427.035 193.5,426C 197.5,423.333 197.5,420.667 193.5,418C 190.166,416.669 187.166,414.835 184.5,412.5C 182.81,408.631 183.476,405.298 186.5,402.5 Z"/></g>
</svg>
