<?xml version="1.0" encoding="UTF-8"?>
<!DOCTYPE svg PUBLIC "-//W3C//DTD SVG 1.1//EN" "http://www.w3.org/Graphics/SVG/1.1/DTD/svg11.dtd">
<svg xmlns="http://www.w3.org/2000/svg" version="1.1" width="500px" height="500px" style="shape-rendering:geometricPrecision; text-rendering:geometricPrecision; image-rendering:optimizeQuality; fill-rule:evenodd; clip-rule:evenodd" xmlns:xlink="http://www.w3.org/1999/xlink">
<g><path style="opacity:0.993" fill="#1e7c80" d="M 264.5,66.5 C 262.208,66.2436 260.041,66.5769 258,67.5C 255.959,65.0259 253.292,64.0259 250,64.5C 248.167,64.6667 246.333,64.8333 244.5,65C 245.451,65.7175 245.617,66.5509 245,67.5C 242.217,66.4023 239.384,66.4023 236.5,67.5C 233.5,68.1667 230.5,68.8333 227.5,69.5C 236.403,64.2872 246.069,62.4539 256.5,64C 259.457,64.2794 262.123,65.1127 264.5,66.5 Z"/></g>
<g><path style="opacity:1" fill="#108488" d="M 264.5,66.5 C 264.833,66.5 265.167,66.5 265.5,66.5C 266.348,68.0931 267.681,69.2597 269.5,70C 267.255,72.0875 264.588,73.4208 261.5,74C 263.167,75 264.833,76 266.5,77C 266,77.5 265.5,78 265,78.5C 263.333,78.1667 261.667,77.8333 260,77.5C 254.93,78.7939 249.764,79.7939 244.5,80.5C 245.025,81.1924 245.692,81.6924 246.5,82C 243.429,82.1466 240.596,82.9799 238,84.5C 237.5,84 237,83.5 236.5,83C 239.267,82.3308 239.767,81.1641 238,79.5C 236.039,80.8966 233.872,81.8966 231.5,82.5C 230.09,82.1322 229.09,81.2989 228.5,80C 232.405,78.6409 236.405,77.8076 240.5,77.5C 240.833,74.5 239.5,73.1667 236.5,73.5C 236.5,71.5 236.5,69.5 236.5,67.5C 239.384,66.4023 242.217,66.4023 245,67.5C 245.617,66.5509 245.451,65.7175 244.5,65C 246.333,64.8333 248.167,64.6667 250,64.5C 253.292,64.0259 255.959,65.0259 258,67.5C 260.041,66.5769 262.208,66.2436 264.5,66.5 Z"/></g>
<g><path style="opacity:0.973" fill="#22777a" d="M 275.5,72.5 C 281.613,75.9471 285.946,80.9471 288.5,87.5C 285.742,85.0942 283.409,82.2609 281.5,79C 280.552,78.5172 279.552,78.3505 278.5,78.5C 278.025,76.2163 277.025,74.2163 275.5,72.5 Z"/></g>
<g><path style="opacity:1" fill="#118486" d="M 275.5,72.5 C 277.025,74.2163 278.025,76.2163 278.5,78.5C 277.262,77.5876 275.928,77.4209 274.5,78C 276.947,80.5704 278.113,83.737 278,87.5C 281.343,88.7759 284.343,91.1092 287,94.5C 287.206,97.363 288.04,99.1964 289.5,100C 289.245,101.326 288.578,102.326 287.5,103C 289.196,106.962 288.53,110.462 285.5,113.5C 285.833,114.167 286.167,114.833 286.5,115.5C 285.384,115.402 284.384,115.902 283.5,117C 280.676,123.316 281.343,129.149 285.5,134.5C 285.167,135.833 284.833,137.167 284.5,138.5C 283.222,138.782 282.222,139.449 281.5,140.5C 281.423,139.25 280.756,138.417 279.5,138C 281.18,137.653 282.18,136.653 282.5,135C 280.865,132.23 279.365,129.397 278,126.5C 275.021,127.749 274.854,129.416 277.5,131.5C 276.315,133.87 275.149,136.203 274,138.5C 273.667,138.167 273.333,137.833 273,137.5C 271.035,138.83 269.035,140.164 267,141.5C 265.378,141.046 264.212,140.046 263.5,138.5C 266.61,136.612 269.943,135.279 273.5,134.5C 273.987,133.554 274.32,132.554 274.5,131.5C 273.352,129.373 272.352,127.206 271.5,125C 272.929,122.31 273.929,119.477 274.5,116.5C 276.769,104.305 273.102,94.3047 263.5,86.5C 264.209,85.596 265.209,85.2627 266.5,85.5C 267.309,83.0271 267.642,80.6937 267.5,78.5C 269.006,77.2528 270.506,77.2528 272,78.5C 273.617,77.4642 273.784,76.2975 272.5,75C 273.078,73.583 274.078,72.7496 275.5,72.5 Z"/></g>
<g><path style="opacity:1" fill="#128485" d="M 258.5,96.5 C 261.405,98.756 263.072,101.756 263.5,105.5C 262.077,103.455 260.077,102.455 257.5,102.5C 258.075,105.571 256.909,107.571 254,108.5C 252.413,107.663 251.58,106.33 251.5,104.5C 252.33,102.172 253.163,99.8383 254,97.5C 254.483,98.448 254.649,99.448 254.5,100.5C 257.142,100.512 258.475,99.179 258.5,96.5 Z"/></g>
<g><path style="opacity:1" fill="#138288" d="M 258.5,96.5 C 258.475,99.179 257.142,100.512 254.5,100.5C 254.649,99.448 254.483,98.448 254,97.5C 253.163,99.8383 252.33,102.172 251.5,104.5C 251.58,106.33 252.413,107.663 254,108.5C 256.909,107.571 258.075,105.571 257.5,102.5C 260.077,102.455 262.077,103.455 263.5,105.5C 263.5,106.5 263.5,107.5 263.5,108.5C 260.467,110.187 257.134,111.52 253.5,112.5C 255.316,114.441 257.316,115.108 259.5,114.5C 258.147,115.524 257.48,116.857 257.5,118.5C 255.5,118.167 253.5,117.833 251.5,117.5C 251.33,116.178 251.663,115.011 252.5,114C 249.854,113.503 247.187,113.336 244.5,113.5C 244.286,115.144 244.62,116.644 245.5,118C 247.225,117.591 248.892,117.758 250.5,118.5C 248.929,120.415 246.929,121.415 244.5,121.5C 244.5,120.5 244.5,119.5 244.5,118.5C 242.801,118.66 241.134,118.494 239.5,118C 237.919,114.989 236.253,112.156 234.5,109.5C 234.968,99.8868 239.968,94.5534 249.5,93.5C 252.692,94.0449 255.692,95.0449 258.5,96.5 Z"/></g>
<g><path style="opacity:1" fill="#1a8183" d="M 263.5,105.5 C 265.169,116.088 260.502,122.088 249.5,123.5C 240.608,122.94 235.608,118.273 234.5,109.5C 236.253,112.156 237.919,114.989 239.5,118C 241.134,118.494 242.801,118.66 244.5,118.5C 244.5,119.5 244.5,120.5 244.5,121.5C 246.929,121.415 248.929,120.415 250.5,118.5C 248.892,117.758 247.225,117.591 245.5,118C 244.62,116.644 244.286,115.144 244.5,113.5C 247.187,113.336 249.854,113.503 252.5,114C 251.663,115.011 251.33,116.178 251.5,117.5C 253.5,117.833 255.5,118.167 257.5,118.5C 257.48,116.857 258.147,115.524 259.5,114.5C 257.316,115.108 255.316,114.441 253.5,112.5C 257.134,111.52 260.467,110.187 263.5,108.5C 263.5,107.5 263.5,106.5 263.5,105.5 Z"/></g>
<g><path style="opacity:1" fill="#11838b" d="M 270.5,79.5 C 271.5,79.5 272.5,79.5 273.5,79.5C 272.491,85.2251 274.325,89.5585 279,92.5C 279.37,95.9491 279.203,99.1158 278.5,102C 279.863,103.945 280.697,106.112 281,108.5C 281.874,104.465 282.874,100.465 284,96.5C 284.333,98.5 284.667,100.5 285,102.5C 285.333,101.5 285.667,100.5 286,99.5C 286.17,103.493 286.004,107.493 285.5,111.5C 283.833,111.5 282.167,111.5 280.5,111.5C 280.46,114.881 280.793,118.214 281.5,121.5C 280.178,121.67 279.011,121.337 278,120.5C 277.187,110.662 275.687,100.995 273.5,91.5C 271.042,91.7725 269.375,90.7725 268.5,88.5C 270.391,87.6893 271.724,86.3559 272.5,84.5C 271.544,82.9246 270.877,81.258 270.5,79.5 Z"/></g>
<g><path style="opacity:1" fill="#148287" d="M 278.5,78.5 C 279.552,78.3505 280.552,78.5172 281.5,79C 283.409,82.2609 285.742,85.0942 288.5,87.5C 293.612,97.2586 294.778,107.592 292,118.5C 290.491,124.214 288.325,129.548 285.5,134.5C 281.343,129.149 280.676,123.316 283.5,117C 284.384,115.902 285.384,115.402 286.5,115.5C 286.167,114.833 285.833,114.167 285.5,113.5C 288.53,110.462 289.196,106.962 287.5,103C 288.578,102.326 289.245,101.326 289.5,100C 288.04,99.1964 287.206,97.363 287,94.5C 284.343,91.1092 281.343,88.7759 278,87.5C 278.113,83.737 276.947,80.5704 274.5,78C 275.928,77.4209 277.262,77.5876 278.5,78.5 Z"/></g>
<g><path style="opacity:1" fill="#128388" d="M 265.5,66.5 C 269.505,67.4977 272.839,69.4977 275.5,72.5C 274.078,72.7496 273.078,73.583 272.5,75C 273.784,76.2975 273.617,77.4642 272,78.5C 270.506,77.2528 269.006,77.2528 267.5,78.5C 267.642,80.6937 267.309,83.0271 266.5,85.5C 265.209,85.2627 264.209,85.596 263.5,86.5C 246.391,79.1492 233.558,83.8158 225,100.5C 221.867,115.735 227.367,126.568 241.5,133C 256.834,136 267.834,130.5 274.5,116.5C 273.929,119.477 272.929,122.31 271.5,125C 272.352,127.206 273.352,129.373 274.5,131.5C 274.32,132.554 273.987,133.554 273.5,134.5C 269.943,135.279 266.61,136.612 263.5,138.5C 264.212,140.046 265.378,141.046 267,141.5C 269.035,140.164 271.035,138.83 273,137.5C 273.333,137.833 273.667,138.167 274,138.5C 275.149,136.203 276.315,133.87 277.5,131.5C 274.854,129.416 275.021,127.749 278,126.5C 279.365,129.397 280.865,132.23 282.5,135C 282.18,136.653 281.18,137.653 279.5,138C 280.756,138.417 281.423,139.25 281.5,140.5C 277.641,145.192 273.974,150.025 270.5,155C 271.308,156.706 272.641,157.539 274.5,157.5C 269.26,167.409 263.593,177.076 257.5,186.5C 250.444,191.18 244.277,190.18 239,183.5C 225.059,161.951 214.059,138.951 206,114.5C 203.552,94.7348 210.718,79.7348 227.5,69.5C 230.5,68.8333 233.5,68.1667 236.5,67.5C 236.5,69.5 236.5,71.5 236.5,73.5C 239.5,73.1667 240.833,74.5 240.5,77.5C 236.405,77.8076 232.405,78.6409 228.5,80C 229.09,81.2989 230.09,82.1322 231.5,82.5C 233.872,81.8966 236.039,80.8966 238,79.5C 239.767,81.1641 239.267,82.3308 236.5,83C 237,83.5 237.5,84 238,84.5C 240.596,82.9799 243.429,82.1466 246.5,82C 245.692,81.6924 245.025,81.1924 244.5,80.5C 249.764,79.7939 254.93,78.7939 260,77.5C 261.667,77.8333 263.333,78.1667 265,78.5C 265.5,78 266,77.5 266.5,77C 264.833,76 263.167,75 261.5,74C 264.588,73.4208 267.255,72.0875 269.5,70C 267.681,69.2597 266.348,68.0931 265.5,66.5 Z"/></g>
<g><path style="opacity:1" fill="#1a7d84" d="M 284.5,138.5 C 281.422,144.991 278.088,151.325 274.5,157.5C 272.641,157.539 271.308,156.706 270.5,155C 273.974,150.025 277.641,145.192 281.5,140.5C 282.222,139.449 283.222,138.782 284.5,138.5 Z"/></g>
<g><path style="opacity:1" fill="#148285" d="M 317.5,175.5 C 317.936,178.364 317.103,180.697 315,182.5C 313.885,181 313.052,179.333 312.5,177.5C 314.031,176.387 315.031,174.887 315.5,173C 314.008,168.194 312.841,168.36 312,173.5C 311,174.167 310,174.833 309,175.5C 308.404,170.12 308.738,164.787 310,159.5C 310.814,157.718 311.981,156.218 313.5,155C 311.393,153.736 310.393,151.903 310.5,149.5C 308.167,149.5 305.833,149.5 303.5,149.5C 303.5,148.5 303.5,147.5 303.5,146.5C 300.978,146.128 298.978,146.961 297.5,149C 300.889,151.766 304.556,153.099 308.5,153C 309.995,156.841 308.661,158.174 304.5,157C 303.299,156.097 302.465,154.931 302,153.5C 301.667,153.833 301.333,154.167 301,154.5C 296.363,150.418 292.196,150.751 288.5,155.5C 286.076,155.808 283.743,155.474 281.5,154.5C 283.039,151.254 284.706,148.088 286.5,145C 293.914,144.11 301.247,144.443 308.5,146C 310.709,147.873 312.542,150.04 314,152.5C 315.818,160.075 316.985,167.741 317.5,175.5 Z"/></g>
<g><path style="opacity:1" fill="#168287" d="M 317.5,175.5 C 321.415,196.817 325.081,218.317 328.5,240C 327.895,248.268 323.562,252.934 315.5,254C 303.505,254.5 291.505,254.667 279.5,254.5C 288.675,253.833 298.009,253.167 307.5,252.5C 305.96,251.468 305.46,250.135 306,248.5C 310.401,249.467 314.901,249.8 319.5,249.5C 319.5,248.167 319.5,246.833 319.5,245.5C 317.396,245.799 315.396,245.466 313.5,244.5C 316.215,241.79 318.715,242.123 321,245.5C 322.797,240.339 323.797,235.005 324,229.5C 326.096,228.285 325.929,227.451 323.5,227C 323.833,226 324.167,225 324.5,224C 323.365,223.251 322.365,223.417 321.5,224.5C 320.915,227.503 320.248,230.503 319.5,233.5C 319.254,231.78 319.254,229.78 319.5,227.5C 314.514,227.305 312.848,229.472 314.5,234C 313.956,234.717 313.289,235.217 312.5,235.5C 312.448,231.802 312.114,228.135 311.5,224.5C 294.167,224.5 276.833,224.5 259.5,224.5C 275.813,222.841 292.48,221.841 309.5,221.5C 295.577,219.587 281.577,218.254 267.5,217.5C 267.5,216.5 267.5,215.5 267.5,214.5C 262.622,216.559 257.789,217.892 253,218.5C 250.41,214.606 251.243,211.773 255.5,210C 257.473,209.505 259.473,209.338 261.5,209.5C 260.71,210.794 259.71,211.961 258.5,213C 275.497,213.5 292.497,213.667 309.5,213.5C 308.715,207.458 307.715,201.458 306.5,195.5C 297.339,194.668 288.339,193.001 279.5,190.5C 278.833,190.667 278.167,190.833 277.5,191C 272.634,196.695 267.634,202.195 262.5,207.5C 261.127,207.657 259.793,207.49 258.5,207C 256.31,206.075 254.31,204.908 252.5,203.5C 257.123,197.706 261.956,192.039 267,186.5C 267.507,185.004 267.007,183.837 265.5,183C 266.949,179.727 268.949,176.894 271.5,174.5C 281.528,180.952 292.528,183.952 304.5,183.5C 303.876,176.088 302.709,168.754 301,161.5C 298.115,156.975 293.948,154.975 288.5,155.5C 292.196,150.751 296.363,150.418 301,154.5C 301.333,154.167 301.667,153.833 302,153.5C 302.465,154.931 303.299,156.097 304.5,157C 308.661,158.174 309.995,156.841 308.5,153C 304.556,153.099 300.889,151.766 297.5,149C 298.978,146.961 300.978,146.128 303.5,146.5C 303.5,147.5 303.5,148.5 303.5,149.5C 305.833,149.5 308.167,149.5 310.5,149.5C 310.393,151.903 311.393,153.736 313.5,155C 311.981,156.218 310.814,157.718 310,159.5C 308.738,164.787 308.404,170.12 309,175.5C 310,174.833 311,174.167 312,173.5C 312.841,168.36 314.008,168.194 315.5,173C 315.031,174.887 314.031,176.387 312.5,177.5C 313.052,179.333 313.885,181 315,182.5C 317.103,180.697 317.936,178.364 317.5,175.5 Z"/></g>
<g><path style="opacity:1" fill="#158186" d="M 251.5,204.5 C 252.473,206.068 252.64,207.735 252,209.5C 250.267,210.833 248.767,212.333 247.5,214C 249.048,216.264 250.714,218.431 252.5,220.5C 252.013,221.446 251.68,222.446 251.5,223.5C 252.371,228.046 255.038,230.379 259.5,230.5C 259.167,233.5 257.5,235.167 254.5,235.5C 254.383,237.484 255.05,239.15 256.5,240.5C 256.376,241.107 256.043,241.44 255.5,241.5C 248.761,231.699 242.261,221.699 236,211.5C 234.127,209.291 231.96,207.458 229.5,206C 216.574,204.557 203.574,204.057 190.5,204.5C 189.05,205.658 188.05,205.158 187.5,203C 189.378,201.007 189.712,198.841 188.5,196.5C 187.914,196.709 187.414,197.043 187,197.5C 186.224,203.725 185.391,209.892 184.5,216C 187.167,217 187.167,218 184.5,219C 185.747,220.494 185.747,221.994 184.5,223.5C 183.746,220.695 182.746,218.028 181.5,215.5C 183.882,212.06 183.882,208.727 181.5,205.5C 182.68,201.156 183.346,196.49 183.5,191.5C 182.167,191.5 180.833,191.5 179.5,191.5C 180.055,195.012 179.388,198.012 177.5,200.5C 179.364,183.646 182.198,166.979 186,150.5C 187.5,149 189,147.5 190.5,146C 197.753,144.443 205.086,144.11 212.5,145C 214.294,148.088 215.961,151.254 217.5,154.5C 213.204,155.328 208.871,155.828 204.5,156C 201.417,156.786 199.251,158.619 198,161.5C 196.026,172.151 194.193,182.818 192.5,193.5C 193.552,193.649 194.552,193.483 195.5,193C 205.357,184.976 215.357,177.143 225.5,169.5C 227.869,172.561 229.369,175.894 230,179.5C 224.167,184 218.333,188.5 212.5,193C 227.453,191.15 239.12,196.317 247.5,208.5C 249.216,207.451 250.549,206.118 251.5,204.5 Z"/></g>
<g><path style="opacity:1" fill="#158188" d="M 190.5,204.5 C 188.98,214.81 187.646,225.143 186.5,235.5C 185.434,236.692 184.601,236.359 184,234.5C 183.821,231.447 183.321,228.447 182.5,225.5C 180.962,230.698 181.295,235.698 183.5,240.5C 182.147,241.524 181.48,242.857 181.5,244.5C 179.099,243.951 176.765,243.118 174.5,242C 173.409,239.936 173.242,237.769 174,235.5C 175.115,237 175.948,238.667 176.5,240.5C 177.723,241.614 179.056,241.781 180.5,241C 179.68,231.577 179.18,222.077 179,212.5C 177.932,216.319 176.432,219.986 174.5,223.5C 175.388,226.763 174.721,229.763 172.5,232.5C 173.539,221.607 175.206,210.94 177.5,200.5C 179.388,198.012 180.055,195.012 179.5,191.5C 180.833,191.5 182.167,191.5 183.5,191.5C 183.346,196.49 182.68,201.156 181.5,205.5C 183.882,208.727 183.882,212.06 181.5,215.5C 182.746,218.028 183.746,220.695 184.5,223.5C 185.747,221.994 185.747,220.494 184.5,219C 187.167,218 187.167,217 184.5,216C 185.391,209.892 186.224,203.725 187,197.5C 187.414,197.043 187.914,196.709 188.5,196.5C 189.712,198.841 189.378,201.007 187.5,203C 188.05,205.158 189.05,205.658 190.5,204.5 Z"/></g>
<g><path style="opacity:1" fill="#158286" d="M 252.5,203.5 C 254.31,204.908 256.31,206.075 258.5,207C 259.793,207.49 261.127,207.657 262.5,207.5C 262.167,208.167 261.833,208.833 261.5,209.5C 259.473,209.338 257.473,209.505 255.5,210C 251.243,211.773 250.41,214.606 253,218.5C 257.789,217.892 262.622,216.559 267.5,214.5C 267.5,215.5 267.5,216.5 267.5,217.5C 281.577,218.254 295.577,219.587 309.5,221.5C 292.48,221.841 275.813,222.841 259.5,224.5C 258.761,224.369 258.094,224.536 257.5,225C 261.5,231 265.5,237 269.5,243C 280.5,243.667 291.5,243.667 302.5,243C 307.458,242.529 310.791,240.029 312.5,235.5C 313.289,235.217 313.956,234.717 314.5,234C 312.848,229.472 314.514,227.305 319.5,227.5C 319.254,229.78 319.254,231.78 319.5,233.5C 320.248,230.503 320.915,227.503 321.5,224.5C 322.365,223.417 323.365,223.251 324.5,224C 324.167,225 323.833,226 323.5,227C 325.929,227.451 326.096,228.285 324,229.5C 323.797,235.005 322.797,240.339 321,245.5C 318.715,242.123 316.215,241.79 313.5,244.5C 315.396,245.466 317.396,245.799 319.5,245.5C 319.5,246.833 319.5,248.167 319.5,249.5C 314.901,249.8 310.401,249.467 306,248.5C 305.46,250.135 305.96,251.468 307.5,252.5C 298.009,253.167 288.675,253.833 279.5,254.5C 245.792,254.965 212.126,254.465 178.5,253C 171.094,247.627 169.094,240.794 172.5,232.5C 174.721,229.763 175.388,226.763 174.5,223.5C 176.432,219.986 177.932,216.319 179,212.5C 179.18,222.077 179.68,231.577 180.5,241C 179.056,241.781 177.723,241.614 176.5,240.5C 175.948,238.667 175.115,237 174,235.5C 173.242,237.769 173.409,239.936 174.5,242C 176.765,243.118 179.099,243.951 181.5,244.5C 181.48,242.857 182.147,241.524 183.5,240.5C 181.295,235.698 180.962,230.698 182.5,225.5C 183.321,228.447 183.821,231.447 184,234.5C 184.601,236.359 185.434,236.692 186.5,235.5C 188.209,240.029 191.542,242.529 196.5,243C 216.5,243.667 236.5,243.667 256.5,243C 255.944,242.617 255.611,242.117 255.5,241.5C 256.043,241.44 256.376,241.107 256.5,240.5C 255.05,239.15 254.383,237.484 254.5,235.5C 257.5,235.167 259.167,233.5 259.5,230.5C 255.038,230.379 252.371,228.046 251.5,223.5C 251.68,222.446 252.013,221.446 252.5,220.5C 250.714,218.431 249.048,216.264 247.5,214C 248.767,212.333 250.267,210.833 252,209.5C 252.64,207.735 252.473,206.068 251.5,204.5C 251.5,203.833 251.833,203.5 252.5,203.5 Z M 259.5,224.5 C 276.833,224.5 294.167,224.5 311.5,224.5C 312.114,228.135 312.448,231.802 312.5,235.5C 310.791,240.029 307.458,242.529 302.5,243C 291.5,243.667 280.5,243.667 269.5,243C 265.5,237 261.5,231 257.5,225C 258.094,224.536 258.761,224.369 259.5,224.5 Z"/></g>
<g><path style="opacity:1" fill="#11838a" d="M 257.5,238.5 C 259.265,237.539 261.265,237.205 263.5,237.5C 262.79,240.86 264.124,242.693 267.5,243C 266.5,243.333 265.5,243.667 264.5,244C 277.416,248.503 290.749,250.503 304.5,250C 304.167,250.333 303.833,250.667 303.5,251C 263.823,251.856 224.156,252.356 184.5,252.5C 182.726,252.113 181.059,251.447 179.5,250.5C 178.417,249.635 178.251,248.635 179,247.5C 188.375,249.81 197.875,250.143 207.5,248.5C 207.5,247.5 207.5,246.5 207.5,245.5C 219.518,245.168 231.518,245.501 243.5,246.5C 245.567,247.134 247.4,248.134 249,249.5C 250.974,249.374 253.141,249.208 255.5,249C 251.749,248.239 251.583,247.072 255,245.5C 257.643,248.87 261.143,250.204 265.5,249.5C 265.67,248.178 265.337,247.011 264.5,246C 262.132,245.144 259.798,244.31 257.5,243.5C 257.822,241.525 257.822,239.858 257.5,238.5 Z"/></g>
<g><path style="opacity:0.891" fill="#010101" d="M 137.5,326.5 C 139.792,326.244 141.959,326.577 144,327.5C 150.318,343.461 157.151,359.128 164.5,374.5C 168.731,377.471 172.564,377.138 176,373.5C 176.667,360.167 176.667,346.833 176,333.5C 174.211,331.771 172.044,331.104 169.5,331.5C 169.5,330.167 169.5,328.833 169.5,327.5C 176.175,327.334 182.842,327.5 189.5,328C 198.389,339.89 206.889,352.057 215,364.5C 215.667,354.167 215.667,343.833 215,333.5C 213.211,331.771 211.044,331.104 208.5,331.5C 208.5,330.167 208.5,328.833 208.5,327.5C 215.5,327.5 222.5,327.5 229.5,327.5C 229.5,328.833 229.5,330.167 229.5,331.5C 224.292,330.873 221.792,333.206 222,338.5C 221.5,352.496 221.333,366.496 221.5,380.5C 217.894,380.789 214.394,380.456 211,379.5C 202,366.5 193,353.5 184,340.5C 183.333,351.5 183.333,362.5 184,373.5C 185.465,375.915 187.632,376.915 190.5,376.5C 190.5,377.5 190.5,378.5 190.5,379.5C 175.167,379.5 159.833,379.5 144.5,379.5C 144.5,378.5 144.5,377.5 144.5,376.5C 147.061,376.553 149.061,375.553 150.5,373.5C 149.5,370.833 148.5,368.167 147.5,365.5C 141.167,364.167 134.833,364.167 128.5,365.5C 127.42,368.332 126.42,371.165 125.5,374C 126.978,376.039 128.978,376.872 131.5,376.5C 131.5,377.5 131.5,378.5 131.5,379.5C 120.828,379.667 110.161,379.5 99.5,379C 93.325,371.328 86.9916,363.828 80.5,356.5C 79.3372,361.802 79.1705,367.136 80,372.5C 82.1496,375.963 85.3162,377.296 89.5,376.5C 89.5,377.5 89.5,378.5 89.5,379.5C 80.1667,379.5 70.8333,379.5 61.5,379.5C 61.5,378.5 61.5,377.5 61.5,376.5C 63.9363,376.683 66.103,376.016 68,374.5C 68.6667,360.833 68.6667,347.167 68,333.5C 66.5557,331.845 64.7224,331.178 62.5,331.5C 62.5,330.167 62.5,328.833 62.5,327.5C 72.5056,327.334 82.5056,327.5 92.5,328C 107.112,331.228 110.445,339.228 102.5,352C 100.044,353.711 97.3771,355.044 94.5,356C 99.8333,362 105.167,368 110.5,374C 115.864,376.924 119.364,375.424 121,369.5C 126.805,355.248 132.305,340.915 137.5,326.5 Z M 79.5,332.5 C 84.0408,332.052 88.3741,332.719 92.5,334.5C 96.4435,339.336 96.4435,344.17 92.5,349C 88.3795,350.899 84.0462,351.732 79.5,351.5C 79.5,345.167 79.5,338.833 79.5,332.5 Z M 137.5,341.5 C 140.245,347.206 142.911,353.04 145.5,359C 140.845,359.499 136.179,359.666 131.5,359.5C 133.493,353.51 135.493,347.51 137.5,341.5 Z"/></g>
<g><path style="opacity:0.86" fill="#020202" d="M 249.5,326.5 C 254.377,326.64 258.877,327.973 263,330.5C 263.908,328.561 265.408,327.561 267.5,327.5C 267.5,332.833 267.5,338.167 267.5,343.5C 266.448,343.649 265.448,343.483 264.5,343C 260.379,332.114 253.545,329.614 244,335.5C 242.877,338.956 243.71,341.79 246.5,344C 252.667,346.278 258.667,348.945 264.5,352C 271.794,357.503 273.628,364.336 270,372.5C 263.382,379.815 255.216,382.315 245.5,380C 242.804,379.235 240.304,378.068 238,376.5C 237.517,377.448 237.351,378.448 237.5,379.5C 236.5,379.5 235.5,379.5 234.5,379.5C 233.835,373.523 233.502,367.523 233.5,361.5C 234.552,361.351 235.552,361.517 236.5,362C 239.803,373.319 247.136,377.319 258.5,374C 263.701,369.912 263.701,365.912 258.5,362C 253.084,359.861 247.751,357.528 242.5,355C 232.747,347.324 232.08,338.99 240.5,330C 243.459,328.396 246.459,327.229 249.5,326.5 Z"/></g>
<g><path style="opacity:0.886" fill="#010101" d="M 351.5,326.5 C 372.682,327.51 382.848,338.51 382,359.5C 379.098,370.734 371.932,377.567 360.5,380C 347.057,382.302 336.224,378.135 328,367.5C 320.464,344.895 328.297,331.228 351.5,326.5 Z M 348.5,332.5 C 359.713,330.851 366.547,335.517 369,346.5C 370.054,353.698 369.388,360.698 367,367.5C 360.583,376.043 352.749,377.543 343.5,372C 337.847,364.443 336.014,355.943 338,346.5C 339.347,340.106 342.847,335.44 348.5,332.5 Z"/></g>
<g><path style="opacity:0.91" fill="#020202" d="M 5.5,327.5 C 23.5,327.5 41.5,327.5 59.5,327.5C 59.5,332.833 59.5,338.167 59.5,343.5C 58.1779,343.67 57.0113,343.337 56,342.5C 56.0806,338.154 54.2473,334.987 50.5,333C 46.2452,332.204 42.0785,332.371 38,333.5C 37.3333,345.833 37.3333,358.167 38,370.5C 39.1341,374.823 41.9674,376.823 46.5,376.5C 46.5,377.5 46.5,378.5 46.5,379.5C 36.8333,379.5 27.1667,379.5 17.5,379.5C 17.5,378.5 17.5,377.5 17.5,376.5C 22.3623,376.958 25.5289,374.958 27,370.5C 27.6667,358.167 27.6667,345.833 27,333.5C 22.5868,332.368 18.0868,332.201 13.5,333C 10.3247,335.347 8.65803,338.513 8.5,342.5C 7.67504,343.386 6.67504,343.719 5.5,343.5C 5.5,338.167 5.5,332.833 5.5,327.5 Z"/></g>
<g><path style="opacity:0.919" fill="#010101" d="M 276.5,327.5 C 286.839,327.334 297.172,327.5 307.5,328C 319.76,330.345 323.927,337.512 320,349.5C 316.872,353.651 312.705,356.151 307.5,357C 302.845,357.499 298.179,357.666 293.5,357.5C 293.211,363.245 293.711,368.912 295,374.5C 297.621,375.991 300.455,376.658 303.5,376.5C 303.5,377.5 303.5,378.5 303.5,379.5C 294.5,379.5 285.5,379.5 276.5,379.5C 276.5,378.5 276.5,377.5 276.5,376.5C 280.107,376.621 282.273,374.955 283,371.5C 283.922,358.443 283.589,345.443 282,332.5C 280.301,331.594 278.467,331.261 276.5,331.5C 276.5,330.167 276.5,328.833 276.5,327.5 Z M 293.5,332.5 C 305.647,329.822 310.814,334.488 309,346.5C 308.215,348.286 307.049,349.786 305.5,351C 301.605,352.266 297.605,352.766 293.5,352.5C 293.5,345.833 293.5,339.167 293.5,332.5 Z"/></g>
<g><path style="opacity:0.892" fill="#010101" d="M 387.5,327.5 C 397.506,327.334 407.506,327.5 417.5,328C 432.132,331.266 435.465,339.266 427.5,352C 424.833,353.333 422.167,354.667 419.5,356C 424.698,362.71 430.364,369.044 436.5,375C 438.436,375.813 440.436,376.313 442.5,376.5C 442.5,377.5 442.5,378.5 442.5,379.5C 436.491,379.666 430.491,379.499 424.5,379C 418.315,371.154 411.815,363.654 405,356.5C 404.333,362.167 404.333,367.833 405,373.5C 407.642,376.029 410.808,377.029 414.5,376.5C 414.5,377.5 414.5,378.5 414.5,379.5C 405.167,379.5 395.833,379.5 386.5,379.5C 386.5,378.5 386.5,377.5 386.5,376.5C 389.368,376.915 391.535,375.915 393,373.5C 393.667,360.167 393.667,346.833 393,333.5C 391.556,331.845 389.722,331.178 387.5,331.5C 387.5,330.167 387.5,328.833 387.5,327.5 Z M 404.5,332.5 C 412.954,330.385 418.287,333.385 420.5,341.5C 418.477,349.721 413.143,353.054 404.5,351.5C 404.5,345.167 404.5,338.833 404.5,332.5 Z"/></g>
<g><path style="opacity:0.894" fill="#010102" d="M 439.5,327.5 C 457.5,327.5 475.5,327.5 493.5,327.5C 493.5,332.833 493.5,338.167 493.5,343.5C 492.167,343.5 490.833,343.5 489.5,343.5C 489.794,339.885 488.794,336.718 486.5,334C 481.628,332.612 476.628,332.112 471.5,332.5C 471.333,345.837 471.5,359.171 472,372.5C 474.105,375.302 476.939,376.635 480.5,376.5C 480.5,377.5 480.5,378.5 480.5,379.5C 470.833,379.5 461.167,379.5 451.5,379.5C 451.5,378.5 451.5,377.5 451.5,376.5C 454.747,376.585 457.581,375.585 460,373.5C 460.5,359.837 460.667,346.171 460.5,332.5C 455.372,332.112 450.372,332.612 445.5,334C 443.596,336.877 442.596,340.044 442.5,343.5C 441.5,343.5 440.5,343.5 439.5,343.5C 439.5,338.167 439.5,332.833 439.5,327.5 Z"/></g>
<g><path style="opacity:0.772" fill="#040404" d="M 187.5,401.5 C 191.257,401.727 194.757,402.06 198,402.5C 199.111,410.318 197.611,411.152 193.5,405C 188.344,403.488 186.677,405.154 188.5,410C 191.167,411.333 193.833,412.667 196.5,414C 201.336,417.834 201.67,422.001 197.5,426.5C 193.298,429.113 189.131,429.113 185,426.5C 184.586,426.957 184.086,427.291 183.5,427.5C 182.727,425.187 182.06,422.854 181.5,420.5C 182.325,419.614 183.325,419.281 184.5,419.5C 185.509,424.346 188.509,426.18 193.5,425C 196.321,422.283 195.987,419.95 192.5,418C 187.546,416.708 184.212,413.708 182.5,409C 182.818,405.53 184.484,403.03 187.5,401.5 Z"/></g>
<g><path style="opacity:0.852" fill="#050505" d="M 207.5,401.5 C 213.868,401.17 220.202,401.504 226.5,402.5C 227.706,404.516 227.706,406.516 226.5,408.5C 225.155,407.653 224.155,406.487 223.5,405C 220.518,404.502 217.518,404.335 214.5,404.5C 214.183,407.572 214.516,410.572 215.5,413.5C 216.736,412.754 218.07,412.421 219.5,412.5C 219.5,411.5 219.5,410.5 219.5,409.5C 220.5,409.5 221.5,409.5 222.5,409.5C 222.5,412.833 222.5,416.167 222.5,419.5C 221.5,419.5 220.5,419.5 219.5,419.5C 219.616,416.09 217.95,414.756 214.5,415.5C 212.66,423.491 215.66,426.658 223.5,425C 227.455,418.828 229.122,419.661 228.5,427.5C 221.137,427.831 213.803,427.497 206.5,426.5C 207.628,425.738 208.795,425.071 210,424.5C 210.667,418.167 210.667,411.833 210,405.5C 208.294,404.692 207.461,403.359 207.5,401.5 Z"/></g>
<g><path style="opacity:0.771" fill="#040404" d="M 233.5,401.5 C 242.167,401.5 250.833,401.5 259.5,401.5C 259.813,404.247 259.48,406.914 258.5,409.5C 257.106,405.084 254.106,403.418 249.5,404.5C 249.334,411.175 249.5,417.842 250,424.5C 251.205,425.071 252.372,425.738 253.5,426.5C 248.833,427.833 244.167,427.833 239.5,426.5C 241.296,425.859 242.796,424.859 244,423.5C 244.5,417.175 244.666,410.842 244.5,404.5C 242.143,404.337 239.81,404.503 237.5,405C 236.624,406.586 235.624,408.086 234.5,409.5C 233.52,406.914 233.187,404.247 233.5,401.5 Z"/></g>
<g><path style="opacity:0.87" fill="#040405" d="M 265.5,401.5 C 272.167,401.5 278.833,401.5 285.5,401.5C 285.808,403.924 285.474,406.257 284.5,408.5C 283.155,407.653 282.155,406.487 281.5,405C 278.518,404.502 275.518,404.335 272.5,404.5C 272.183,407.572 272.516,410.572 273.5,413.5C 275.94,412.762 277.94,411.429 279.5,409.5C 280.833,412.833 280.833,416.167 279.5,419.5C 278.125,416.453 275.792,415.12 272.5,415.5C 270.963,423.348 273.963,426.515 281.5,425C 283.176,423.823 284.509,422.323 285.5,420.5C 286.474,422.743 286.808,425.076 286.5,427.5C 279.137,427.831 271.803,427.497 264.5,426.5C 265.689,425.571 267.022,425.238 268.5,425.5C 268.5,418.5 268.5,411.5 268.5,404.5C 267.5,404.5 266.5,404.5 265.5,404.5C 265.5,403.5 265.5,402.5 265.5,401.5 Z"/></g>
<g><path style="opacity:0.768" fill="#030304" d="M 292.5,401.5 C 296.167,401.5 299.833,401.5 303.5,401.5C 302.191,405.259 303.024,408.592 306,411.5C 307.5,409.333 309,407.167 310.5,405C 309.552,404.517 308.552,404.351 307.5,404.5C 307.5,403.5 307.5,402.5 307.5,401.5C 310.833,401.5 314.167,401.5 317.5,401.5C 317.5,402.5 317.5,403.5 317.5,404.5C 316.448,404.351 315.448,404.517 314.5,405C 312.167,408 309.833,411 307.5,414C 309.788,416.743 311.955,419.577 314,422.5C 315.42,424.422 317.253,425.755 319.5,426.5C 315.167,427.833 310.833,427.833 306.5,426.5C 307.5,425.833 308.5,425.167 309.5,424.5C 308,422.167 306.5,419.833 305,417.5C 302.46,419.705 300.293,422.205 298.5,425C 299.624,425.249 300.624,425.749 301.5,426.5C 298.167,427.833 294.833,427.833 291.5,426.5C 296.068,423.394 299.735,419.394 302.5,414.5C 300.862,411.696 299.029,409.029 297,406.5C 295.89,404.963 294.39,404.297 292.5,404.5C 292.5,403.5 292.5,402.5 292.5,401.5 Z"/></g>
</svg>
